Coordinates
version=1
nRows=17
nColumns=40
inDegrees=yes

Units are S.I. units (second, meters, Newtons, ...)
If the header above contains a line with 'inDegrees', this indicates whether rotational values are in degrees (yes) or radians (no).

endheader
time	pelvis_tilt	pelvis_list	pelvis_rotation	pelvis_tx	pelvis_ty	pelvis_tz	hip_flexion_r	hip_adduction_r	hip_rotation_r	knee_angle_r	knee_angle_r_beta	ankle_angle_r	subtalar_angle_r	mtp_angle_r	hip_flexion_l	hip_adduction_l	hip_rotation_l	knee_angle_l	knee_angle_l_beta	ankle_angle_l	subtalar_angle_l	mtp_angle_l	lumbar_extension	lumbar_bending	lumbar_rotation	arm_flex_r	arm_add_r	arm_rot_r	elbow_flex_r	pro_sup_r	wrist_flex_r	wrist_dev_r	arm_flex_l	arm_add_l	arm_rot_l	elbow_flex_l	pro_sup_l	wrist_flex_l	wrist_dev_l
      5.26500000	    -15.12165312	      2.72642917	      1.48428880	     -0.27979788	      0.91534496	     -0.91798321	     33.82594196	    -13.25141943	    -12.86150923	     35.62185716	      0.62171869	     -5.78425561	      0.00000000	      0.00000000	     30.41238097	     -5.72084254	     -8.91685380	     29.16076319	      0.50895133	     -4.99968081	      0.00000000	      0.00000000	    -10.33917775	     -2.87647125	     -6.97504103	      6.01321082	    -57.43268588	     63.98347089	    103.72766182	     87.04393830	      0.00000000	      0.00000000	    -21.14674930	    -57.42433586	     44.94326260	    103.18836238	     87.31462412	      0.00000000	      0.00000000
      5.27000000	    -15.89680187	      1.09861416	      2.11465848	     -0.27727268	      0.92564235	     -0.91792461	     32.40790917	    -11.47466845	    -14.61664841	     31.76281348	      0.55436568	     -9.60537288	      0.00000000	      0.00000000	     30.15727304	     -6.73008936	     -7.80436756	     26.32645232	      0.45948327	     -8.85377112	      0.00000000	      0.00000000	     -8.76066106	     -1.09947726	     -7.35122727	      5.31184855	    -57.59615448	     63.52661883	    103.72168240	     87.04394824	      0.00000000	      0.00000000	    -21.55435023	    -56.53997226	     44.58151002	    102.07176379	     87.30417823	      0.00000000	      0.00000000
      5.27500000	    -15.40475991	      1.08767712	      1.84704568	     -0.27275088	      0.93872767	     -0.91709644	     29.91994369	    -10.76499631	    -15.02134324	     27.82996825	      0.48572458	    -14.07660492	      0.00000000	      0.00000000	     27.47303032	     -6.53431537	     -8.46316680	     22.17155903	      0.38696671	    -13.67532129	      0.00000000	      0.00000000	     -8.53281026	     -1.16320572	     -7.08896744	      4.65814570	    -57.23341485	     63.15593044	    103.21644931	     87.03312589	      0.00000000	      0.00000000	    -21.81594872	    -55.68310047	     44.18188821	    100.65535210	     87.26703231	      0.00000000	      0.00000000
      5.28000000	    -14.59050846	      1.38912548	      1.99459140	     -0.26813255	      0.95268145	     -0.91778238	     26.96249780	    -10.62229041	    -15.69789575	     23.75840874	      0.41466246	    -18.66380272	      0.00000000	      0.00000000	     24.35705257	     -5.66002996	     -8.70746096	     17.50808020	      0.30557365	    -19.36091245	      0.00000000	      0.00000000	     -8.74708499	     -1.42038142	     -7.20441024	      3.92044352	    -56.82309081	     62.59541819	    102.58515341	     87.03952288	      0.00000000	      0.00000000	    -21.83583431	    -54.71150136	     43.94254708	     99.22641294	     87.29650110	      0.00000000	      0.00000000
      5.28500000	    -14.40438329	      0.76585703	      2.31486703	     -0.26384136	      0.96518171	     -0.91809114	     24.59682355	     -9.51348955	    -16.76214845	     19.45906261	      0.33962471	    -23.81128180	      0.00000000	      0.00000000	     22.48434644	     -5.80188470	     -8.58710260	     13.62130864	      0.23773668	    -25.22831657	      0.00000000	      0.00000000	     -8.19536202	     -0.71091289	     -7.35810699	      3.03179436	    -56.57294855	     62.07187351	    102.02933359	     87.03113065	      0.00000000	      0.00000000	    -21.85657666	    -53.56672806	     43.80223356	     97.68144223	     87.28318226	      0.00000000	      0.00000000
      5.29000000	    -14.62124007	      0.46061822	      2.10032070	     -0.26070495	      0.97678724	     -0.91746691	     23.16000138	     -8.52847869	    -17.01061852	     15.62233162	      0.27266112	    -28.76336467	      0.00000000	      0.00000000	     20.92384849	     -5.81320556	     -8.73728866	      9.42034812	      0.16441609	    -31.01306441	      0.00000000	      0.00000000	     -7.33202890	     -0.44963081	     -5.73752882	     -1.91613269	    -56.22934969	     57.13806009	    101.89411788	     87.09884565	      0.00000000	      0.00000000	    -18.92262758	    -53.41735570	     46.92220873	     96.48011484	     87.33301012	      0.00000000	      0.00000000
      5.29500000	    -15.23982054	     -0.32539757	      2.04995397	     -0.25788882	      0.98788138	     -0.91687930	     22.13453548	     -7.10739322	    -17.61593082	     11.70869188	      0.20435522	    -33.76382109	      0.00000000	      0.00000000	     20.28313201	     -6.37552678	     -8.92406843	      6.08553941	      0.10621270	    -35.31843831	      0.00000000	      0.00000000	     -5.96953724	      0.36419955	     -5.51738621	     -2.46807518	    -55.87491989	     56.93200444	    101.31755951	     87.08595269	      0.00000000	      0.00000000	    -18.89975109	    -52.31920071	     46.75283968	     95.18412928	     87.28604497	      0.00000000	      0.00000000
      5.30000000	    -14.54847246	     -0.07281326	      1.99705897	     -0.25335804	      1.00128442	     -0.91708084	     19.70862113	     -6.81282583	    -18.52747271	      8.17235982	      0.14263459	    -36.95300160	      0.00000000	      0.00000000	     17.83587088	     -5.76028009	    -10.12655575	      2.65574471	      0.04635149	    -37.64528119	      0.00000000	      0.00000000	     -6.04865478	      0.12858482	     -5.38569217	     -3.02586443	    -55.22561694	     56.50935492	    100.35810675	     87.06099480	      0.00000000	      0.00000000	    -18.85321817	    -51.29217439	     46.54736111	     93.80244466	     87.26463957	      0.00000000	      0.00000000
      5.30500000	    -14.65469820	      0.02344634	      2.24366891	     -0.25020674	      1.01337448	     -0.91784240	     18.42562177	     -6.57985017	    -19.84302389	      5.43333618	      0.09482961	    -37.96839636	      0.00000000	      0.00000000	     17.10359057	     -5.28079196	    -11.39585867	      0.97794263	      0.01706832	    -38.01268772	      0.00000000	      0.00000000	     -5.32924461	      0.06782629	     -5.50431146	     -3.62225919	    -54.71495842	     56.18521654	     99.69848327	     87.04645731	      0.00000000	      0.00000000	    -18.77004054	    -50.39631607	     46.40802664	     92.85262682	     87.23998150	      0.00000000	      0.00000000
      5.31000000	    -14.76259405	      0.07995183	      1.93480051	     -0.24706184	      1.02528785	     -0.91751230	     17.31846735	     -6.07927107	    -20.77706636	      2.91739266	      0.05091811	    -38.31641872	      0.00000000	      0.00000000	     16.76709746	     -5.11474468	    -14.29445820	      0.54462599	      0.00950552	    -37.25211743	      0.00000000	      0.00000000	     -4.71446899	      0.00601376	     -4.40556779	     -6.52486661	    -54.00956593	     53.14679820	     99.15035661	     87.07272705	      0.00000000	      0.00000000	    -17.76435351	    -49.65754949	     46.95525368	     91.98878376	     87.26444345	      0.00000000	      0.00000000
      5.31500000	    -15.09347380	      0.21861339	      1.68064650	     -0.24464748	      1.03661396	     -0.91689605	     17.01212972	     -5.85970415	    -22.88952279	      1.67911706	      0.02930612	    -38.02344307	      0.00000000	      0.00000000	     16.75355408	     -4.84263129	    -17.09186304	      0.50996265	      0.00890053	    -36.05152044	      0.00000000	      0.00000000	     -3.79869108	     -0.19029649	     -4.04989672	     -6.79047382	    -53.39684720	     53.03974477	     98.25531053	     86.99748502	      0.00000000	      0.00000000	    -17.51642762	    -48.98271251	     46.98617679	     91.28792979	     87.19537767	      0.00000000	      0.00000000
      5.32000000	    -15.35202372	      0.23847486	      1.20722383	     -0.24250918	      1.04771210	     -0.91578493	     16.99001856	     -5.50309449	    -24.76984922	      1.31904256	      0.02302164	    -37.32804417	      0.00000000	      0.00000000	     16.63076078	     -4.75402245	    -19.86041079	      0.58651336	      0.01023659	    -35.19980967	      0.00000000	      0.00000000	     -3.03173304	     -0.27052978	     -3.41539504	     -7.14607874	    -52.81595127	     52.74346624	     97.54241601	     86.93986898	      0.00000000	      0.00000000	    -17.35550034	    -48.32884039	     46.80075692	     90.72012374	     87.12717043	      0.00000000	      0.00000000
      5.32500000	    -15.38108378	      0.17160123	      1.01783169	     -0.24050855	      1.05878855	     -0.91517504	     16.75038303	     -5.17975904	    -26.61432475	      1.23418357	      0.02154057	    -36.19536492	      0.00000000	      0.00000000	     16.34652966	     -4.64859342	    -21.90576616	      0.72422126	      0.01264005	    -35.02695599	      0.00000000	      0.00000000	     -2.58894271	     -0.22323093	     -3.06488569	     -7.45966374	    -52.35056782	     52.43131066	     96.90847880	     86.94356148	      0.00000000	      0.00000000	    -17.19615859	    -47.75701037	     46.65977068	     90.22602418	     87.13657574	      0.00000000	      0.00000000
      5.33000000	    -15.33382003	      0.29001321	      0.75400509	     -0.23913335	      1.06959251	     -0.91450441	     16.75276508	     -5.15482891	    -28.42146523	      1.79519366	      0.03133204	    -35.23391597	      0.00000000	      0.00000000	     16.13771478	     -4.38186836	    -24.10806936	      1.10570416	      0.01929818	    -35.83165520	      0.00000000	      0.00000000	     -2.34605569	     -0.35558284	     -1.13284195	    -11.82269231	    -51.34937391	     47.38368204	     96.68984702	     87.03443611	      0.00000000	      0.00000000	    -13.74711525	    -47.97186395	     50.03167571	     89.76222124	     87.18325390	      0.00000000	      0.00000000
      5.33500000	    -15.22158986	      0.38778544	      0.74087986	     -0.23800448	      1.08040979	     -0.91430331	     16.60114644	     -5.18472729	    -29.89350040	      2.35965051	      0.04118367	    -35.10830855	      0.00000000	      0.00000000	     16.02249686	     -4.16535385	    -25.60072991	      1.85852014	      0.03243730	    -37.09200439	      0.00000000	      0.00000000	     -2.21002363	     -0.46011289	     -1.01693502	    -11.78302703	    -50.90168688	     47.19939537	     96.01408503	     87.01898535	      0.00000000	      0.00000000	    -13.54016164	    -47.52089655	     49.87071114	     89.31445908	     87.15908297	      0.00000000	      0.00000000
      5.34000000	    -15.09358154	      0.47931541	      0.92653003	     -0.23760097	      1.09117896	     -0.91433913	     16.50696647	     -5.36203036	    -31.15550960	      3.22755590	      0.05633148	    -35.40494548	      0.00000000	      0.00000000	     16.16026355	     -3.99545598	    -26.41699477	      3.12720153	      0.05457996	    -38.30121575	      0.00000000	      0.00000000	     -2.18548981	     -0.57449705	     -1.02451979	    -11.72677319	    -50.45808885	     46.99517910	     95.36203782	     87.01252947	      0.00000000	      0.00000000	    -13.10070163	    -47.18654530	     49.81855005	     88.94027024	     87.16481686	      0.00000000	      0.00000000
      5.34500000	    -15.18158414	      0.83650768	      0.75687120	     -0.23779379	      1.10116696	     -0.91388085	     16.85692714	     -5.78014519	    -31.43124800	      4.37442138	      0.07634806	    -35.95018549	      0.00000000	      0.00000000	     16.66711552	     -3.73829551	    -27.20519280	      4.88041465	      0.08517930	    -38.89054649	      0.00000000	      0.00000000	     -1.98390198	     -0.98159089	     -0.63621711	    -11.69935479	    -50.08918918	     46.84921609	     94.89535690	     87.03102132	      0.00000000	      0.00000000	    -12.52327454	    -47.07668256	     50.09321486	     88.68643702	     87.19565356	      0.00000000	      0.00000000
